<svg width="164" height="164" viewBox="0 0 164 164" fill="none" xmlns="http://www.w3.org/2000/svg">
<rect width="163.256" height="163.256" rx="81.628" fill="#F4EFEB"/>
<path d="M85.8806 125.94V100.619H102.874L81.6323 75.2977L60.3909 100.619H77.384V125.94H56.1426V125.729C55.4289 125.772 54.7491 125.94 54.0184 125.94C45.5681 125.94 37.4638 122.606 31.4885 116.67C25.5131 110.734 22.1563 102.683 22.1562 94.2887C22.1563 78.0493 34.5188 64.8146 50.3819 62.9999C51.7727 55.7774 55.6536 49.2621 61.357 44.5745C67.0604 39.8869 74.2299 37.3202 81.6323 37.3157C89.0358 37.3197 96.2064 39.8862 101.911 44.5736C107.616 49.2611 111.499 55.7767 112.891 62.9999C128.754 64.8146 141.1 78.0493 141.1 94.2887C141.1 102.683 137.743 110.734 131.768 116.67C125.792 122.606 117.688 125.94 109.238 125.94C108.524 125.94 107.836 125.772 107.114 125.729V125.94H85.8806Z" fill="#442D1D"/>
</svg>
