<svg width="85" height="85" viewBox="0 0 85 85" fill="none" xmlns="http://www.w3.org/2000/svg">
<path d="M17.7083 74.375C15.7604 74.375 14.0935 73.682 12.7075 72.296C11.3215 70.9101 10.6274 69.2419 10.625 67.2917V17.7083C10.625 15.7604 11.3192 14.0935 12.7075 12.7075C14.0958 11.3215 15.7628 10.6274 17.7083 10.625H57.2865C58.2309 10.625 59.1317 10.8021 59.9888 11.1563C60.8458 11.5104 61.5979 12.0122 62.2448 12.6615L72.3385 22.7552C72.9878 23.4045 73.4896 24.1577 73.8438 25.0148C74.1979 25.8719 74.375 26.7715 74.375 27.7135V67.2917C74.375 69.2396 73.682 70.9077 72.296 72.296C70.9101 73.6844 69.2419 74.3774 67.2917 74.375H17.7083ZM42.5 63.75C45.4514 63.75 47.9601 62.717 50.026 60.651C52.092 58.5851 53.125 56.0764 53.125 53.125C53.125 50.1736 52.092 47.6649 50.026 45.599C47.9601 43.533 45.4514 42.5 42.5 42.5C39.5486 42.5 37.0399 43.533 34.974 45.599C32.908 47.6649 31.875 50.1736 31.875 53.125C31.875 56.0764 32.908 58.5851 34.974 60.651C37.0399 62.717 39.5486 63.75 42.5 63.75ZM24.7917 35.4167H49.5833C50.5868 35.4167 51.4285 35.0767 52.1085 34.3967C52.7885 33.7167 53.1274 32.8761 53.125 31.875V24.7917C53.125 23.7882 52.785 22.9476 52.105 22.27C51.425 21.5924 50.5844 21.2524 49.5833 21.25H24.7917C23.7882 21.25 22.9476 21.59 22.27 22.27C21.5924 22.95 21.2524 23.7906 21.25 24.7917V31.875C21.25 32.8785 21.59 33.7202 22.27 34.4002C22.95 35.0802 23.7906 35.419 24.7917 35.4167Z" fill="#442D1D"/>
</svg>
