<svg width="69" height="69" viewBox="0 0 69 69" fill="none" xmlns="http://www.w3.org/2000/svg">
<rect width="69" height="69" rx="10" fill="#442D1D"/>
<path d="M20.2184 23.0934H35.1871M20.1581 30.6978H48.8563M20.1581 38.3022H48.8549M20.1451 45.9066H41.7594M55.3438 7.90625H13.6562C12.1313 7.90625 10.6687 8.51205 9.59039 9.59039C8.51205 10.6687 7.90625 12.1313 7.90625 13.6562V55.3438C7.90625 56.8687 8.51205 58.3313 9.59039 59.4096C10.6687 60.4879 12.1313 61.0938 13.6562 61.0938H55.3438C56.8687 61.0938 58.3313 60.4879 59.4096 59.4096C60.4879 58.3313 61.0938 56.8687 61.0938 55.3438V13.6562C61.0938 12.1313 60.4879 10.6687 59.4096 9.59039C58.3313 8.51205 56.8687 7.90625 55.3438 7.90625Z" stroke="white" stroke-width="0.5" stroke-linecap="round" stroke-linejoin="round"/>
</svg>
