<svg width="109" height="109" viewBox="0 0 109 109" fill="none" xmlns="http://www.w3.org/2000/svg">
<path d="M45.4167 72.6668H63.5834C66.0813 72.6668 68.125 70.623 68.125 68.1251V45.4168H75.3463C79.3884 45.4168 81.4321 40.5118 78.5709 37.6505L57.7246 16.8043C57.3045 16.3832 56.8054 16.0492 56.256 15.8213C55.7065 15.5934 55.1176 15.4761 54.5227 15.4761C53.9279 15.4761 53.339 15.5934 52.7895 15.8213C52.2401 16.0492 51.741 16.3832 51.3209 16.8043L30.4746 37.6505C27.6134 40.5118 29.6117 45.4168 33.6538 45.4168H40.875V68.1251C40.875 70.623 42.9188 72.6668 45.4167 72.6668ZM27.25 81.7501H81.75C84.248 81.7501 86.2917 83.7938 86.2917 86.2918C86.2917 88.7897 84.248 90.8334 81.75 90.8334H27.25C24.7521 90.8334 22.7084 88.7897 22.7084 86.2918C22.7084 83.7938 24.7521 81.7501 27.25 81.7501Z" fill="#442D1D"/>
</svg>
